<?xml version="1.0" encoding="utf-8"?>
<!-- Generator: Adobe Illustrator 22.1.0, SVG Export Plug-In . SVG Version: 6.00 Build 0)  -->
<svg version="1.1" id="Слой_1" xmlns="http://www.w3.org/2000/svg" xmlns:xlink="http://www.w3.org/1999/xlink" x="0px" y="0px"
	 viewBox="0 0 1200 1200" style="enable-background:new 0 0 1200 1200;" xml:space="preserve">
<style type="text/css">
	.st0{fill:#DAD7D5;}
</style>
<path class="st0" d="M593.8,71.7C378.9,71.7,204,246.6,204,461.5s174.9,389.8,389.8,389.8s389.8-174.9,389.8-389.8
	S808.8,71.7,593.8,71.7z M296,242.5c69.9-94.8,180.9-151.2,297.9-151.2c7.1,0,14.2,0.5,21,1l1.9,0.1v150.1H296z M616.8,578
	L434.5,342.3l-1.8-2.4h-15.4v275.8h19.6v-238l182.3,235.7l1.8,2.3h15.5V260.6h121v339.8c0,42.1-8.5,73.7-25.1,94.1
	c-16.6,20.3-42.6,30.5-77.3,30.5c-22.2,0-42.9-5.6-61.6-16.6c-18.8-11.1-35-27-48.1-47.2l-1.5-2.3l-13.2,11.5l1,1.7
	c13.1,21.9,30.7,39.3,52.5,52c21.8,12.6,45.4,19,70.2,19c80.7,0,121.6-47.5,121.6-141.3V242.5H636.4V93.9
	C823.4,115.4,964,273,964,461.5c0,204.1-166.1,370.2-370.2,370.2S223.6,665.7,223.6,461.5c0-71.3,20.6-140.8,59.7-200.9h333.5V578z"
	/>
<path class="st0" d="M596.3,1200l-6.2-4.8c-1.2-0.9-117.3-91.4-231.7-224.9c-67.3-78.5-121-156.4-159.5-231.6
	C150.5,644.4,126,554,126,470.2c0.1-125.6,49-243.7,137.8-332.5C352.6,48.9,470.7,0,596.3,0C721.9,0,840,48.9,928.8,137.7
	c88.8,88.8,137.7,206.9,137.7,332.5c0,82.6-24.6,172.3-73,266.5C955,811.6,901.3,889.6,834,968.5
	c-114.4,134.1-230.4,225.8-231.5,226.7L596.3,1200z M596.3,20C476,20,363,66.8,278,151.9c-85,85-131.9,198.1-131.9,318.4
	c-0.1,80.6,23.7,167.8,70.7,259.4c37.8,73.7,90.6,150.3,156.9,227.7c98.1,114.4,197.3,196.7,222.6,217.2
	c25.3-20.7,124.6-104.2,222.8-219.3c66.2-77.7,119-154.3,156.8-227.8c46.9-91.3,70.7-177.8,70.7-257.1
	c0-120.3-46.8-233.3-131.9-318.4S716.5,20,596.3,20z"/>
</svg>
