<svg width="18" height="18" viewBox="0 0 18 18" fill="none" xmlns="http://www.w3.org/2000/svg">
<g clip-path="url(#clip0)">
<path d="M12.6506 0.03125H4.85433C2.31695 0.03125 0.49345 2.0955 0.49345 4.63288L0.493408 12.4293C0.493408 14.9666 2.31695 17.0308 4.85433 17.0308H12.6508C15.188 17.0308 16.9705 14.9666 16.9705 12.4293V8.61431V4.63288C16.9705 2.0955 15.188 0.03125 12.6506 0.03125ZM16.2557 12.4293C16.2557 14.417 14.6385 16.0342 12.6506 16.0342H4.85433C2.86647 16.0342 1.24929 14.417 1.24929 12.4293V4.63288C1.24929 2.64502 2.86647 1.02784 4.85433 1.02784H12.6508C14.6385 1.02784 16.2557 2.64502 16.2557 4.63288V12.4293Z" fill="#dddad8"/>
<path d="M8.75207 4.10938C6.18901 4.10938 4.44428 5.97287 4.44428 8.53593C4.44428 11.099 6.18901 12.9912 8.75207 12.9912C11.3151 12.9912 13.1672 11.099 13.1672 8.53593C13.1672 5.97287 11.3151 4.10938 8.75207 4.10938ZM8.75207 12.1875C6.73866 12.1875 5.10047 10.5495 5.10047 8.53593C5.10047 6.52252 6.73866 4.88433 8.75207 4.88433C10.7656 4.88433 12.4037 6.52252 12.4037 8.53593C12.4037 10.5495 10.7656 12.1875 8.75207 12.1875Z" fill="#dddad8"/>
<path d="M12.2882 3.60395C12.2882 2.92949 12.8371 2.38047 13.5117 2.38047C14.1863 2.38047 14.7353 2.92939 14.7353 3.60395C14.7353 4.27854 14.1862 4.82757 13.5117 4.82757C12.8371 4.82757 12.2882 4.27856 12.2882 3.60395ZM12.9848 3.60395C12.9848 3.89457 13.2211 4.13085 13.5117 4.13085C13.8024 4.13085 14.0387 3.8946 14.0387 3.60395C14.0387 3.31314 13.8023 3.07706 13.5117 3.07706C13.2211 3.07706 12.9848 3.31317 12.9848 3.60395Z" fill="#dddad8" stroke="#dddad8" stroke-width="0.3"/>
</g>
<defs>
<clipPath id="clip0">
<rect width="17.4041" height="17.4041" fill="white" transform="translate(0.0297852 0.03125)"/>
</clipPath>
</defs>
</svg>
