<svg width="12" height="18" viewBox="0 0 12 18" fill="none" xmlns="http://www.w3.org/2000/svg">
<path d="M6.16919 0.488281C1.56507 0.488281 0.0634766 3.47288 0.0634766 6.22557C0.0634766 7.89218 0.407334 9.08743 1.49357 9.92738C1.71569 10.0181 1.91467 9.93067 1.97927 9.68505C2.02383 9.51492 2.12971 9.08605 2.17686 8.90728C2.24181 8.66426 2.21642 8.5791 2.03747 8.36734C1.64729 7.90704 1.39788 7.31114 1.39788 6.46704C1.39788 4.01817 3.23013 1.82596 6.16919 1.82596C8.7711 1.82596 10.2009 3.41606 10.2009 5.53952C10.2009 8.3335 8.96438 10.6915 7.12884 10.6915C6.11496 10.6915 5.35636 9.85311 5.59955 8.82489C5.89076 7.59734 5.96022 6.42542 5.96022 5.53952C5.96022 4.74638 6.19082 3.97504 5.30958 3.97504C4.29273 4.3145 4.19124 4.96825 4.09202 6.53582C4.03194 7.48521 3.75371 8.36734 3.75371 8.36734C3.75371 8.36734 3.11885 12.2404 2.93335 13.0274C2.56286 14.5943 2.28654 16.7417 2.31314 16.9357C2.32851 17.0507 2.47619 17.078 2.54321 16.9913C2.63907 16.8664 3.87318 15.3428 4.29272 13.8202C4.41139 13.3891 4.97395 11.1568 4.97395 11.1568C5.31076 11.7988 6.08231 11.9816 7.12884 11.9816C10.2009 11.6377 11.5857 8.99015 11.5857 5.18868C11.5859 2.31439 9.86927 0.488281 6.16919 0.488281Z" fill="#dddad8"/>
</svg>
