<svg width="24" height="23" viewBox="0 0 24 23" fill="none" xmlns="http://www.w3.org/2000/svg">
<path d="M22.6492 5.59928C21.9357 5.91288 21.1739 6.12651 20.3717 6.22406C21.1892 5.73149 21.818 4.95516 22.1155 4.02887C21.3488 4.47629 20.4991 4.80198 19.5946 4.98337C18.8723 4.21026 17.8428 3.72656 16.6997 3.72656C14.5093 3.72656 12.7333 5.50254 12.7333 7.69047C12.7333 8.00487 12.7696 8.30718 12.8357 8.5966C9.53852 8.44101 6.61618 6.8577 4.66043 4.4642C4.31619 5.04625 4.12352 5.72262 4.12352 6.45946C4.12352 7.838 4.82488 9.04966 5.88741 9.7615C5.23683 9.74054 4.62495 9.56157 4.09127 9.2649V9.31408C4.09127 11.2368 5.45611 12.8402 7.2724 13.2054C6.93945 13.2949 6.58796 13.3433 6.22761 13.3433C5.97447 13.3433 5.73182 13.3191 5.48916 13.274C5.99785 14.8484 7.46023 15.9964 9.20074 16.0286C7.84638 17.0919 6.13006 17.7256 4.28153 17.7256C3.96713 17.7256 3.65353 17.707 3.33832 17.6716C5.10301 18.7954 7.18211 19.4524 9.4305 19.4524C16.7295 19.4524 20.716 13.4094 20.716 8.17739C20.716 8.0089 20.716 7.8388 20.7039 7.66951C21.4786 7.11406 22.155 6.41189 22.687 5.6154L22.6492 5.59928Z" fill="#CDCDCD"/>
</svg>
