<svg width="20" height="12" viewBox="0 0 20 12" fill="none" xmlns="http://www.w3.org/2000/svg">
<path d="M9.90109 11.3521H11.0338C11.0338 11.3521 11.3751 11.3151 11.5494 11.1283C11.7149 10.9541 11.7149 10.6317 11.7149 10.6317C11.7149 10.6317 11.6905 9.11266 12.3999 8.88958C13.0991 8.66808 13.9859 10.3558 14.931 11.0045C15.6531 11.5003 16.1962 11.3939 16.1962 11.3939L18.7273 11.3592C18.7273 11.3592 20.0532 11.2765 19.4265 10.2352C19.3784 10.1524 19.071 9.4666 17.5575 8.05954C15.9715 6.59257 16.1844 6.82905 18.0904 4.2861C19.2484 2.73715 19.7221 1.79044 19.5684 1.38843C19.4375 1.01006 18.5752 1.10386 18.5752 1.10386L15.7358 1.1283C15.7358 1.1283 15.523 1.10386 15.3693 1.19924C15.2156 1.29305 15.1218 1.50745 15.1218 1.50745C15.1218 1.50745 14.6709 2.71272 14.0687 3.73037C12.7893 5.88155 12.2809 5.99979 12.0799 5.8579C11.6037 5.54969 11.7259 4.61244 11.7259 3.94084C11.7259 1.85902 12.0444 0.984833 11.1103 0.760177C10.8029 0.688445 10.5735 0.641937 9.78206 0.629325C8.76519 0.618289 7.90756 0.637207 7.4212 0.874476C7.10195 1.03449 6.85364 1.38843 6.99632 1.40656C7.1855 1.4302 7.61038 1.52164 7.83504 1.82986C8.13064 2.22872 8.11802 3.11946 8.11802 3.11946C8.11802 3.11946 8.28435 5.57571 7.72862 5.88076C7.33843 6.08729 6.81817 5.66005 5.68307 3.7083C5.10369 2.71508 4.66541 1.60362 4.66541 1.60362C4.66541 1.60362 4.58264 1.40183 4.42972 1.28359C4.25078 1.15352 3.99066 1.10623 3.99066 1.10623L1.28296 1.12987C1.28296 1.12987 0.880939 1.14249 0.739839 1.31906C0.608987 1.47277 0.727227 1.80384 0.727227 1.80384C0.727227 1.80384 2.84451 6.75968 5.24558 9.25534C7.44484 11.5429 9.9405 11.3955 9.9405 11.3955L9.90109 11.3521Z" fill="#CDCDCD"/>
</svg>
